<svg id="Layer_1" data-name="Layer 1" xmlns="http://www.w3.org/2000/svg" viewBox="0 0 364 364"><defs><style>.cls-1{fill:#fff;}</style></defs><title>ico-youtube-white</title><path class="cls-1" d="M219.85,180.27l-68-34.48a2.7,2.7,0,0,0-4,2.44v66.94a2.7,2.7,0,0,0,3.91,2.46l68-32.45a2.7,2.7,0,0,0,.06-4.91Z"/><path class="cls-1" d="M344,0H20A20.06,20.06,0,0,0,0,20V344a20.06,20.06,0,0,0,20,20H344a20.06,20.06,0,0,0,20-20V20A20.06,20.06,0,0,0,344,0ZM306.39,218a51.68,51.68,0,0,1-51.68,51.68H109.23A51.68,51.68,0,0,1,57.55,218V145.25a51.68,51.68,0,0,1,51.68-51.68H254.74a51.68,51.68,0,0,1,51.65,51.7Z"/></svg>