<svg id="Layer_1" data-name="Layer 1" xmlns="http://www.w3.org/2000/svg" xmlns:xlink="http://www.w3.org/1999/xlink" viewBox="0 0 364 364"><defs><style>.cls-1{fill:#fff;}.cls-2{clip-path:url(#clip-path);}</style><clipPath id="clip-path"><rect class="cls-1" x="57.55" y="93.66" width="248.9" height="176.67"/></clipPath></defs><title>ico-youtube</title><rect class="cls-1" width="364" height="364"/><g id="Layer_1-2" data-name="Layer 1"><rect class="cls-1" x="57.55" y="93.66" width="248.9" height="176.67"/><g class="cls-2"><path d="M254.72,93.58H109.23a51.68,51.68,0,0,0-51.68,51.68h0V218a51.68,51.68,0,0,0,51.68,51.68H254.72A51.68,51.68,0,0,0,306.39,218h0V145.28a51.68,51.68,0,0,0-51.65-51.7Zm-34.93,91.6-68,32.45a2.7,2.7,0,0,1-3.91-2.46V148.23a2.7,2.7,0,0,1,4-2.44l68,34.48a2.7,2.7,0,0,1-.06,4.91Z"/></g></g></svg>