<svg id="Layer_1" data-name="Layer 1" xmlns="http://www.w3.org/2000/svg" viewBox="0 0 364 364"><defs><style>.cls-1{fill:#fff;}</style></defs><title>ico-twitter-white</title><path class="cls-1" d="M344,0H20A20.06,20.06,0,0,0,0,20V344a20.06,20.06,0,0,0,20,20H344a20.06,20.06,0,0,0,20-20V20A20.06,20.06,0,0,0,344,0ZM288.72,130.86q.13,3.21.13,6.45A157,157,0,0,1,48,270h0c47.45,7.08,80.87-23.11,80.87-23.11-42.26-3.28-50.62-38.46-50.62-38.46,14.93,2.53,24.29-1,24.29-1C55,196.24,59,152.71,59,152.71c11,6.58,23.78,7.09,23.78,7.09-42-36.95-15.69-72.88-15.69-72.88,44,53.33,108.78,57,113,57.14A55.07,55.07,0,0,1,274,94c2.78-.78,5.49-1.62,8.07-2.48a191.1,191.1,0,0,0,26.73-11.14c-2.69,16.1-22.54,29.62-24,30.57l-.08,0h.1c15.41-1.54,31.16-8.08,31.16-8.08C311.25,112.85,291.86,128.4,288.72,130.86Z"/></svg>