<svg id="Layer_1" data-name="Layer 1" xmlns="http://www.w3.org/2000/svg" xmlns:xlink="http://www.w3.org/1999/xlink" viewBox="0 0 400 400"><defs><style>.cls-1{fill:none;}.cls-2{clip-path:url(#clip-path);}</style><clipPath id="clip-path"><rect class="cls-1" x="50" y="48.98" width="300" height="302.05"/></clipPath></defs><title>icon-portfolio-logos</title><g class="cls-2"><path d="M346.51,109.2l-37,37H266.7l-6.76,6.76-25.71,25.71-16,16-13.55,13.55a10.37,10.37,0,0,1-14.9-.23,10.66,10.66,0,0,1,.53-14.75l29-29,25.81-25.82,6.89-6.88V88.67l12.79-12.78L289,51.69a10.32,10.32,0,0,1,1-.86l.25-.18A8.52,8.52,0,0,1,291.3,50l.09,0a8,8,0,0,1,1-.45l.26-.09a9.25,9.25,0,0,1,1.13-.29l.16,0c.34,0,.69-.09,1-.1h.26a10.47,10.47,0,0,1,1.15,0l.18,0a8.61,8.61,0,0,1,1,.18l.27.06a11.22,11.22,0,0,1,1.08.35l.15.07a9.45,9.45,0,0,1,.9.44l.25.14a10.23,10.23,0,0,1,.95.63l.1.09a9.42,9.42,0,0,1,.77.68l.21.21a8.44,8.44,0,0,1,.75.88l.06.08a10,10,0,0,1,.57.92l.14.27a9.57,9.57,0,0,1,.47,1.12s0,0,0,.06a8.67,8.67,0,0,1,.3,1.15c0,.1,0,.22.06.33a10.79,10.79,0,0,1,.13,1.31l.74,34.73h.74l34,.73A9,9,0,0,1,345,94.93a8.63,8.63,0,0,1,3,3.16,9.74,9.74,0,0,1,1,2.39,9,9,0,0,1-2.44,8.73Zm-151,12.45a82.22,82.22,0,1,0,75.81,50.6l-29.69,29.69c0,.61.07,1.23.07,1.85a46.2,46.2,0,1,1-46.47-46.19l30.26-30.27a81.54,81.54,0,0,0-30-5.68Zm129.38,39.88a21.73,21.73,0,0,1-15.35,6.36H292.93A104,104,0,1,1,230.31,106V88.67a21.7,21.7,0,0,1,6.36-15.35l6.87-6.87a144.86,144.86,0,0,0-48-8.16C115.27,58.29,50,123.56,50,203.79s65.27,145.5,145.5,145.5S341,284,341,203.79a144.7,144.7,0,0,0-8.74-49.64Zm0,0"/></g></svg>