<svg id="Layer_1" data-name="Layer 1" xmlns="http://www.w3.org/2000/svg" viewBox="0 0 400 400"><defs><style>.cls-1{fill:#fff;}</style></defs><title>icon-portfolio-web</title><path d="M62.5,141.56v165a20.63,20.63,0,0,0,20.63,20.63H316.88a20.63,20.63,0,0,0,20.63-20.62v-165Z"/><path d="M316.88,72.81H83.13A20.63,20.63,0,0,0,62.5,93.44v27.5h275V93.44A20.63,20.63,0,0,0,316.88,72.81Zm-220,37.81a13.75,13.75,0,1,1,13.75-13.75A13.75,13.75,0,0,1,96.88,110.63Zm220-3.44H200V86.56H316.88Z"/><path class="cls-1" d="M292.12,225.77l-48.64-43.26a6.43,6.43,0,0,0-8.54,9.61l43.24,38.46L234.94,269a6.43,6.43,0,1,0,8.54,9.61l48.64-43.26a6.43,6.43,0,0,0,0-9.61Z"/><path class="cls-1" d="M165.59,183a6.43,6.43,0,0,0-9.07-.53l-48.64,43.26a6.43,6.43,0,0,0,0,9.61l48.64,43.26a6.43,6.43,0,1,0,8.54-9.61l-43.24-38.46,43.24-38.46A6.43,6.43,0,0,0,165.59,183Z"/><path class="cls-1" d="M215.36,179.32a6.43,6.43,0,0,0-8,4.29l-27,89.13a6.43,6.43,0,1,0,12.3,3.73l27-89.13A6.43,6.43,0,0,0,215.36,179.32Z"/></svg>