<svg id="Layer_1" data-name="Layer 1" xmlns="http://www.w3.org/2000/svg" xmlns:xlink="http://www.w3.org/1999/xlink" viewBox="0 0 400 400"><defs><style>.cls-1{fill:none;}.cls-2{clip-path:url(#clip-path);}</style><clipPath id="clip-path"><rect class="cls-1" x="72.89" y="50" width="254.22" height="300"/></clipPath></defs><title>icon-services-web</title><g class="cls-2"><path d="M313.41,153.87H261.93v-3.59a13.36,13.36,0,0,0-13.36-13.36H86.25a13.36,13.36,0,0,0-13.36,13.36v186.2a13.36,13.36,0,0,0,13.36,13.36H248.57a13.36,13.36,0,0,0,13.36-13.36v-35.2a70.13,70.13,0,0,0,32.6-20.19c21.39-23,32.24-61.29,32.24-113.86a13.36,13.36,0,0,0-13.36-13.36ZM143.34,260.28a7,7,0,0,1-8.88,10.7l-26.79-22.24a7,7,0,0,1,0-10.7l26.79-22.24a7,7,0,0,1,8.88,10.7L123,243.38Zm43.52-59.07-25.54,88.22A7,7,0,1,1,148,285.56l25.54-88.22a7,7,0,1,1,13.36,3.87Zm40.29,47.53L200.36,271a7,7,0,1,1-8.88-10.7l20.35-16.89L191.48,226.5a7,7,0,0,1,8.88-10.7L227.15,238a6.95,6.95,0,0,1,0,10.7Zm34.78,24.13V180.6h37.87c-2.45,62-22,84.39-37.87,92.27Zm0,0"/><path d="M125.7,107a9.86,9.86,0,0,0,13.22-4.5l18.83-38.3A9.88,9.88,0,0,0,140,55.52l-18.83,38.3A9.88,9.88,0,0,0,125.7,107Zm0,0"/><path d="M181.57,107a9.86,9.86,0,0,0,13.22-4.5l18.84-38.3a9.88,9.88,0,0,0-17.73-8.71l-18.84,38.3A9.88,9.88,0,0,0,181.57,107Zm0,0"/></g></svg>