<svg id="Layer_1" data-name="Layer 1" xmlns="http://www.w3.org/2000/svg" xmlns:xlink="http://www.w3.org/1999/xlink" viewBox="0 0 400 400"><defs><style>.cls-1{fill:none;}.cls-2{clip-path:url(#clip-path);}</style><clipPath id="clip-path"><rect class="cls-1" x="72.54" y="50" width="254.92" height="300"/></clipPath></defs><title>icon-services-research</title><g class="cls-2"><path d="M213.11,50.1a111.28,111.28,0,0,0-48.81,11c-39,18.27-66.1,57.67-66.1,103.3v18.88L74.93,228c-6,11.36-.31,20.47,12.28,20.47h11V290.6a24,24,0,0,0,23.95,23.95l33-5v33.35c0,4.09,3.79,6.9,8.19,6.29l118.69-21.08a10.37,10.37,0,0,0,8.19-9.77V248.39a113.84,113.84,0,0,0,37.14-84.05C327.1,101.41,276.09,50.1,213.11,50.1ZM269.8,220.35a80.21,80.21,0,0,1-97.07,12.46l-.24-.24a45.15,45.15,0,0,1-34.15,9.22,3.18,3.18,0,0,1-.79-6c8.12-4.09,13.56-12.22,16.55-18.69l-.55-.55A79.92,79.92,0,0,1,269.86,107C301,138.19,301,188.89,269.8,220.35Zm0,0"/></g><path d="M211.81,116.21c15.72,0,31.19,7.25,31.19,24.55,0,16-18.3,22.12-22.23,27.88-2.94,4.3-2,10.33-10.06,10.33-5.28,0-7.87-4.3-7.87-8.22,0-14.63,21.5-17.94,21.5-30,0-6.62-4.42-10.56-11.79-10.56-15.72,0-9.58,16.21-21.5,16.21-4.29,0-8-2.59-8-7.5,0-12,13.76-22.71,28.74-22.71ZM211.2,187A10.07,10.07,0,1,1,201.13,197,10.1,10.1,0,0,1,211.2,187Zm0,0"/></svg>