<svg id="Layer_1" data-name="Layer 1" xmlns="http://www.w3.org/2000/svg" viewBox="0 0 400 400"><title>icon-services-seo</title><path d="M314,83.26H86a21,21,0,0,0-21,21v23.87a3,3,0,0,0,3,3H332a3,3,0,0,0,3-3V104.26A21,21,0,0,0,314,83.26ZM102.87,114a6.77,6.77,0,1,1,6.77-6.77A6.77,6.77,0,0,1,102.87,114Zm21.7,0a6.77,6.77,0,1,1,6.77-6.77A6.77,6.77,0,0,1,124.57,114Zm21.7,0a6.77,6.77,0,1,1,6.77-6.77A6.77,6.77,0,0,1,146.27,114Z"/><path d="M265.07,216.29a9.74,9.74,0,1,0,0,13.77A9.75,9.75,0,0,0,265.07,216.29Z"/><path d="M332,143.13H68a3,3,0,0,0-3,3V295.74a21,21,0,0,0,21,21H314a21,21,0,0,0,21-21V146.13A3,3,0,0,0,332,143.13ZM223.29,258.42H112.56a6,6,0,1,1,0-12H223.29a6,6,0,0,1,0,12Zm68.39-1.76a6,6,0,0,1-8.49,0l-14.48-14.48a21.74,21.74,0,1,1,8.49-8.49l14.48,14.48A6,6,0,0,1,291.68,256.67Z"/></svg>