<svg id="Layer_1" data-name="Layer 1" xmlns="http://www.w3.org/2000/svg" xmlns:xlink="http://www.w3.org/1999/xlink" viewBox="0 0 400 400"><defs><style>.cls-1{fill:none;}.cls-2{clip-path:url(#clip-path);}</style><clipPath id="clip-path"><rect class="cls-1" x="50" y="56.02" width="300" height="287.96"/></clipPath></defs><title>icon-services-design</title><g class="cls-2"><path d="M242.66,217.92l24.87,11.76a18.17,18.17,0,0,1,8.21,7.77c14.8-15,30.83-38.45,44.28-66.68,25.87-54.25,32.36-105.1,14.5-113.56s-53.31,28.68-79.18,83c-13.45,28.2-21.6,55.4-23.87,76.29a17.18,17.18,0,0,1,3.29-.33,18.2,18.2,0,0,1,7.91,1.79Zm0,0"/></g><path d="M220.52,264.37l24.87,11.79A13,13,0,0,0,262,271.48a186.89,186.89,0,0,0-48.06-23.7,13.12,13.12,0,0,0,6.62,16.59Zm0,0"/><path d="M223.86,227.3c2.36.77,4.65,1.61,7,2.48a241,241,0,0,1,34.72,16.74c2.2,1.26,4.39,2.53,6.59,3.86a13.16,13.16,0,0,0-6.85-16l-24.88-11.76a13.09,13.09,0,0,0-5.65-1.28,12.89,12.89,0,0,0-3.81.58,13.23,13.23,0,0,0-7.08,5.35Zm0,0"/><g class="cls-2"><path d="M216.66,241.77q9.74,3.3,19.1,7.46c3.89,1.77,7.74,3.58,11.51,5.6A187.27,187.27,0,0,1,265,265.62l4.4-9.2c-3.32-2-6.64-3.91-10-5.8a232.35,232.35,0,0,0-28-13.6c-3.53-1.38-7.11-2.63-10.74-3.81Zm0,0"/><path d="M86.3,225.08c37.78-24.52-6-62.51-21.19-82.32-6.06-7.93-19.71-.13-13.55,7.93C65.6,169,105.2,197.19,69.18,217c-10.66,5.85-17.72,16.54-10,27.89C67,256.39,88.84,257.42,101,259.21a116.72,116.72,0,0,1,25.61,7c-3.32,1.51-6.85,2.68-10.23,3.94-17,6.36-55,21.5-41.59,47.21,11,21,41.54,20.63,65.42,21.07a5.29,5.29,0,0,1-.69-1.66c-1.31-5.08,2.89-8,13-13.57-15.31-1.35-30.68-.92-45.89-3.63-30.6-5.45-11-24.31,6.26-31.34,9.1-3.7,44.1-11.71,32.24-28.5-7.16-10.12-26.28-12.5-37-15.21-7.36-1.85-15.24-2.36-22.68-3.91-17.59-3.76-10.28-8.36.77-15.52Zm0,0"/></g><path d="M159.67,325.27c-11.43,6.24-20.94,11.3-10.71,11.3a108.37,108.37,0,0,0,13.09-1.2c8.23-1.12,19.79-3.06,35.63-6.05,87.49-16.44,21.07-59.46,21.07-59.46a34.61,34.61,0,0,0-12.65-2.51c-21.68,0-34.8,23.11-24.34,39.27,3.09,4.78-10.48,12.35-22.09,18.66Zm0,0"/></svg>