<svg id="Layer_1" data-name="Layer 1" xmlns="http://www.w3.org/2000/svg" xmlns:xlink="http://www.w3.org/1999/xlink" viewBox="0 0 400 400"><defs><style>.cls-1{fill:none;}.cls-2{clip-path:url(#clip-path);}</style><clipPath id="clip-path"><rect class="cls-1" x="50" y="69.13" width="300" height="261.74"/></clipPath></defs><title>icon-portfolio-research</title><g class="cls-2"><path d="M199.42,265a33.49,33.49,0,0,1-19-5.94l-90.29-49.3v61.9c0,17,12.37,32.44,34.83,43.35,20.06,9.74,46.5,15.11,74.45,15.11s54.38-5.37,74.45-15.11c22.46-10.91,34.83-26.31,34.83-43.35v-61.9L218.41,259a33.48,33.48,0,0,1-19,5.94Zm0,0"/><path d="M346.71,149.9c-2.15-3.19,6.66,2.27-139.54-77.55a12.41,12.41,0,0,0-15.5,0l-137,74.8a12.41,12.41,0,0,0,0,19.37l137,74.81a12.41,12.41,0,0,0,15.5,0l121.94-66.58v87.74a10.46,10.46,0,1,0,20.93,0v-105a10.42,10.42,0,0,0-3.33-7.64ZM199.42,175c-13.29,0-24.06-7.79-24.06-17.4s10.78-17.4,24.06-17.4,24.06,7.79,24.06,17.4S212.71,175,199.42,175Zm0,0"/></g></svg>