<svg id="Flame" xmlns="http://www.w3.org/2000/svg" viewBox="0 0 467.09 135.99"><defs><style>.cls-1{fill:#fff;}</style></defs><title>logo</title><path class="cls-1" d="M16.8,39.6H61.44Q76,39.6,81.95,47.2T85.4,68.8Q82.86,83.21,73.52,91.32T47.95,99.43H33.25L27,134.88H0ZM36.64,80.23h6.54q7.71,0,11.36-2.95A12.11,12.11,0,0,0,59,69.74a9.81,9.81,0,0,0-1.37-7.58q-2.16-3.1-9.64-3.11h-7.6Z"/><path class="cls-1" d="M87.55,83.8h16.77l-1.47,8.36q3.37-5.41,6.3-7.44a11.48,11.48,0,0,1,6.7-2A15.47,15.47,0,0,1,124,85.33l-8,13.94a11.41,11.41,0,0,0-4.75-1.45,7.43,7.43,0,0,0-6,3.18q-3.56,4.48-5.72,16.75l-3,17.13h-18Z"/><path class="cls-1" d="M173,114.2H137.09q-.35,4.71,1.09,7a6.74,6.74,0,0,0,6.19,3.32,10.83,10.83,0,0,0,5.27-1.45,16,16,0,0,0,3.69-3.23l17.32,1.72q-5.41,7.71-11.72,11.06t-17,3.35q-9.29,0-14.11-2.86a17.33,17.33,0,0,1-7.23-9.08q-2.4-6.22-.92-14.62a32.58,32.58,0,0,1,10.43-19.35q8.32-7.39,20.69-7.39,10,0,15.26,3.32a16.77,16.77,0,0,1,7.15,9.61q1.93,6.29.15,16.38Zm-16.6-9.36q.47-5.68-1.35-8.13a6.43,6.43,0,0,0-5.51-2.46A9.59,9.59,0,0,0,142.05,98a17.27,17.27,0,0,0-3.27,6.88Z"/><path class="cls-1" d="M184.35,83.8H201l-1.32,7.51a31,31,0,0,1,8.45-6.64,20.66,20.66,0,0,1,9.22-2q5.59,0,8.46,2.17A12.28,12.28,0,0,1,230,91.31a35.55,35.55,0,0,1,8.88-6.81,20.41,20.41,0,0,1,8.87-1.81q7.5,0,10.85,4.88t1.52,15.26l-5.65,32.06H236.59l5.14-29.13q.61-3.46-.32-5.15a4.29,4.29,0,0,0-4-2.65,7.41,7.41,0,0,0-5.54,2.5q-2.38,2.5-3.35,8l-4.65,26.38H206l5-28.09a19.22,19.22,0,0,0,.45-4.56,5,5,0,0,0-1.45-3.1A4.27,4.27,0,0,0,206.81,98a7.5,7.5,0,0,0-5.54,2.55q-2.44,2.54-3.47,8.36l-4.59,26H175.34Z"/><path class="cls-1" d="M272.73,83.8H290.6l-9,51.09H263.72Z"/><path class="cls-1" d="M339.81,134.88H323.13l1.46-8.28a32.87,32.87,0,0,1-8.79,7.23A20.84,20.84,0,0,1,306.1,136q-7.36,0-10.7-4.83t-1.56-14.88l5.73-32.49h18l-5,28.08q-.85,4.81.41,6.83a4.54,4.54,0,0,0,4.18,2,7.58,7.58,0,0,0,5.68-2.69q2.5-2.69,3.73-9.66l4.33-24.57h17.87Z"/><path class="cls-1" d="M357.6,83.8h16.65l-1.32,7.51a30.94,30.94,0,0,1,8.45-6.64,20.65,20.65,0,0,1,9.21-2q5.59,0,8.46,2.17a12.28,12.28,0,0,1,4.19,6.45,35.55,35.55,0,0,1,8.88-6.81A20.42,20.42,0,0,1,421,82.69q7.5,0,10.85,4.88t1.52,15.26l-5.65,32.06H409.84L415,105.75q.61-3.46-.32-5.15a4.29,4.29,0,0,0-4-2.65,7.41,7.41,0,0,0-5.54,2.5q-2.38,2.5-3.35,8l-4.65,26.38H379.22l5-28.09a19.23,19.23,0,0,0,.45-4.56,5,5,0,0,0-1.45-3.1A4.28,4.28,0,0,0,380.06,98a7.5,7.5,0,0,0-5.54,2.55q-2.44,2.54-3.46,8.36l-4.59,26H348.59Z"/><path class="cls-1" d="M448.36,80.72l.25-1.43A3.85,3.85,0,0,1,445.44,81a3.27,3.27,0,0,1-2.13-.74,3.77,3.77,0,0,1-1.24-2.07,7.31,7.31,0,0,1,0-3,9.74,9.74,0,0,1,1.05-3A5.61,5.61,0,0,1,445,70a4.47,4.47,0,0,1,2.42-.73,2.83,2.83,0,0,1,1.58.43,2.75,2.75,0,0,1,1,1.11l1-5.57h1.75L450,80.72Zm-4.54-5.61a4.7,4.7,0,0,0,.27,3.22,2,2,0,0,0,1.8,1.07,3,3,0,0,0,2.14-1,5.84,5.84,0,0,0,1.36-3.11,5.12,5.12,0,0,0-.23-3.38,2,2,0,0,0-1.83-1.08,2.9,2.9,0,0,0-2.14,1A6.33,6.33,0,0,0,443.82,75.11Z"/><path class="cls-1" d="M454.09,80.72l-1.15-11.23h1.83l.51,6.47.15,2.42c0-.12.37-.89,1-2.31l2.77-6.58H461l.39,6.51.13,2.15,1-2.17,2.95-6.49h1.69l-5.27,11.23h-1.77L459.62,74l-.08-1.91-3.63,8.64Z"/><path class="cls-1" d="M301.18,54c-2.08-7.46-3.55-14-1.13-16.4S295.56,39,295.11,45c0,.63-.08,1.32-.1,2-.18,6,.27,14.31-4,14.67-4.45.38-3.49-8,.38-15.76q.44-.89.93-1.77c4.62-8.25,2.48-20.37,2.79-25.37.71-11.09,2.18-13.25,6.51-18.82,0,0-8.94,2.47-11.47,15.63-2.06,10.7-.34,13.81-.89,17.95C287.46,47,281.89,43.73,281,42.08s-.61-6.14,2.5-10.06,2.5-8.67-2.88-11.76c0,0,3.31,4.12,1.41,8.25s-9.36,7.75-10.17,17.9c-1,12.13,2.83,19.44,3.12,20.17a12.1,12.1,0,0,0,.79,1.44,12.25,12.25,0,0,0,10.54,5.62A15.7,15.7,0,0,0,298.12,68a15.41,15.41,0,0,0,3.67-8.29A13.15,13.15,0,0,0,301.18,54Z"/></svg>